<svg width="340" height="295" viewBox="0 0 340 295" fill="none" xmlns="http://www.w3.org/2000/svg">
<path d="M73.2978 245.825L74.0235 246.603L95.0694 185.547L83.4578 173.577L64.952 153.484C62.0491 150.375 62.0491 145.75 64.952 142.679L112.85 91.6895C115.752 88.5803 115.752 83.9555 112.85 80.8852L83.8207 49.988C80.9178 46.8789 76.5635 46.8789 73.6606 49.988L14.8773 112.598C5.80576 121.498 0 134.246 0 148.159C0 161.295 5.08004 173.266 13.063 181.777L73.2978 245.825ZM133.569 294.289L93.1825 275.323C89.6628 273.536 87.7033 269.144 89.4088 264.947L195.981 4.71109C197.65 0.941254 201.75 -1.15742 205.669 0.6692L246.055 19.635C249.575 21.4228 251.535 25.8144 249.829 30.0118L143.257 290.247C141.588 294.406 137.125 296.077 133.569 294.289ZM326.937 113.298L267.065 48.7832L265.977 47.6173L244.931 108.634L256.905 121.46L275.774 141.669C278.677 144.778 278.677 149.442 275.774 152.551L227.15 203.852C224.248 206.961 224.248 211.625 227.15 214.734L256.179 245.825C259.082 248.935 263.437 248.935 266.339 245.825L325.123 182.865C334.194 173.926 340 161.101 340 147.11C340 133.896 334.92 121.848 326.937 113.298Z" fill="white"/>
</svg>
